<?xml version="1.0" encoding="UTF-8" standalone="no"?>
<!DOCTYPE svg PUBLIC "-//W3C//DTD SVG 1.1//EN"
 "http://www.w3.org/Graphics/SVG/1.1/DTD/svg11.dtd">
<!-- Generated by graphviz version 2.40.1 (20161225.0304)
 -->
<!-- Title: dependencies Pages: 1 -->
<svg width="504pt" height="284pt"
 viewBox="0.00 0.00 504.00 284.00" xmlns="http://www.w3.org/2000/svg" xmlns:xlink="http://www.w3.org/1999/xlink">
<g id="graph0" class="graph" transform="scale(1 1) rotate(0) translate(4 280)">
<title>dependencies</title>
<polygon fill="#ffffff" stroke="transparent" points="-4,4 -4,-280 500,-280 500,4 -4,4"/>
<text text-anchor="start" x="227.0091" y="-42.4" font-family="sans-serif" font-weight="bold" font-size="14.00" fill="#000000">Legend</text>
<polygon fill="#ffffb3" stroke="transparent" points="14,-10 14,-30 34,-30 34,-10 14,-10"/>
<text text-anchor="start" x="37.629" y="-15.4" font-family="sans-serif" font-size="14.00" fill="#000000"> &#160;Declarations</text>
<polygon fill="#8dd3c7" stroke="transparent" points="127,-10 127,-30 147,-30 147,-10 127,-10"/>
<text text-anchor="start" x="150.7251" y="-15.4" font-family="sans-serif" font-size="14.00" fill="#000000"> &#160;Module</text>
<polygon fill="#80b1d3" stroke="transparent" points="213,-10 213,-30 233,-30 233,-10 213,-10"/>
<text text-anchor="start" x="236.7812" y="-15.4" font-family="sans-serif" font-size="14.00" fill="#000000"> &#160;Bootstrap</text>
<polygon fill="#fdb462" stroke="transparent" points="310,-10 310,-30 330,-30 330,-10 310,-10"/>
<text text-anchor="start" x="333.6732" y="-15.4" font-family="sans-serif" font-size="14.00" fill="#000000"> &#160;Providers</text>
<polygon fill="#fb8072" stroke="transparent" points="406,-10 406,-30 426,-30 426,-10 406,-10"/>
<text text-anchor="start" x="429.7258" y="-15.4" font-family="sans-serif" font-size="14.00" fill="#000000"> &#160;Exports</text>
<g id="clust1" class="cluster">
<title>cluster_ToggleItModule</title>
<polygon fill="none" stroke="#000000" stroke-dasharray="1,5" points="96.5,-70 96.5,-268 399.5,-268 399.5,-70 96.5,-70"/>
</g>
<g id="clust3" class="cluster">
<title>cluster_ToggleItModule_imports</title>
<polygon fill="none" stroke="#000000" points="180.5,-78 180.5,-130 308.5,-130 308.5,-78 180.5,-78"/>
</g>
<g id="clust4" class="cluster">
<title>cluster_ToggleItModule_exports</title>
<polygon fill="none" stroke="#000000" points="104.5,-208 104.5,-260 391.5,-260 391.5,-208 104.5,-208"/>
</g>
<!-- CommonModule -->
<g id="node1" class="node">
<title>CommonModule</title>
<polygon fill="#8dd3c7" stroke="#000000" points="300.1681,-122 297.1681,-126 276.1681,-126 273.1681,-122 188.8319,-122 188.8319,-86 300.1681,-86 300.1681,-122"/>
<text text-anchor="middle" x="244.5" y="-99.8" font-family="Times,serif" font-size="14.00" fill="#000000">CommonModule</text>
</g>
<!-- ToggleItModule -->
<g id="node2" class="node">
<title>ToggleItModule</title>
<polygon fill="#8dd3c7" stroke="#000000" points="298.2591,-187 295.2591,-191 274.2591,-191 271.2591,-187 190.7409,-187 190.7409,-151 298.2591,-151 298.2591,-187"/>
<text text-anchor="middle" x="244.5" y="-164.8" font-family="Times,serif" font-size="14.00" fill="#000000">ToggleItModule</text>
</g>
<!-- CommonModule&#45;&gt;ToggleItModule -->
<g id="edge1" class="edge">
<title>CommonModule&#45;&gt;ToggleItModule</title>
<path fill="none" stroke="#000000" d="M244.5,-122.1061C244.5,-122.1061 244.5,-140.991 244.5,-140.991"/>
<polygon fill="#000000" stroke="#000000" points="241.0001,-140.9909 244.5,-150.991 248.0001,-140.991 241.0001,-140.9909"/>
</g>
<!-- ToggleItComponent  -->
<g id="node3" class="node">
<title>ToggleItComponent </title>
<polygon fill="#fb8072" stroke="#000000" points="383.0414,-252 249.9586,-252 249.9586,-216 383.0414,-216 383.0414,-252"/>
<text text-anchor="middle" x="316.5" y="-229.8" font-family="Times,serif" font-size="14.00" fill="#000000">ToggleItComponent </text>
</g>
<!-- ToggleItModule&#45;&gt;ToggleItComponent  -->
<g id="edge2" class="edge">
<title>ToggleItModule&#45;&gt;ToggleItComponent </title>
<path fill="none" stroke="#000000" stroke-dasharray="5,2" d="M274.1794,-187.1061C274.1794,-187.1061 274.1794,-205.991 274.1794,-205.991"/>
<polygon fill="#000000" stroke="#000000" points="270.6794,-205.9909 274.1794,-215.991 277.6794,-205.991 270.6794,-205.9909"/>
</g>
<!-- ToggleItDirective  -->
<g id="node4" class="node">
<title>ToggleItDirective </title>
<polygon fill="#fb8072" stroke="#000000" points="232.292,-252 112.708,-252 112.708,-216 232.292,-216 232.292,-252"/>
<text text-anchor="middle" x="172.5" y="-229.8" font-family="Times,serif" font-size="14.00" fill="#000000">ToggleItDirective </text>
</g>
<!-- ToggleItModule&#45;&gt;ToggleItDirective  -->
<g id="edge3" class="edge">
<title>ToggleItModule&#45;&gt;ToggleItDirective </title>
<path fill="none" stroke="#000000" stroke-dasharray="5,2" d="M211.5083,-187.1061C211.5083,-187.1061 211.5083,-205.991 211.5083,-205.991"/>
<polygon fill="#000000" stroke="#000000" points="208.0083,-205.9909 211.5083,-215.991 215.0083,-205.991 208.0083,-205.9909"/>
</g>
</g>
</svg>
