<?xml version="1.0" encoding="UTF-8" standalone="no"?>
<!DOCTYPE svg PUBLIC "-//W3C//DTD SVG 1.1//EN"
 "http://www.w3.org/Graphics/SVG/1.1/DTD/svg11.dtd">
<!-- Generated by graphviz version 2.40.1 (20161225.0304)
 -->
<!-- Title: dependencies Pages: 1 -->
<svg width="1238pt" height="290pt"
 viewBox="0.00 0.00 1238.00 290.00" xmlns="http://www.w3.org/2000/svg" xmlns:xlink="http://www.w3.org/1999/xlink">
<g id="graph0" class="graph" transform="scale(1 1) rotate(0) translate(4 286)">
<title>dependencies</title>
<polygon fill="#ffffff" stroke="transparent" points="-4,4 -4,-286 1234,-286 1234,4 -4,4"/>
<text text-anchor="start" x="594.0091" y="-42.4" font-family="sans-serif" font-weight="bold" font-size="14.00" fill="#000000">Legend</text>
<polygon fill="#ffffb3" stroke="transparent" points="381,-10 381,-30 401,-30 401,-10 381,-10"/>
<text text-anchor="start" x="404.629" y="-15.4" font-family="sans-serif" font-size="14.00" fill="#000000"> &#160;Declarations</text>
<polygon fill="#8dd3c7" stroke="transparent" points="494,-10 494,-30 514,-30 514,-10 494,-10"/>
<text text-anchor="start" x="517.7251" y="-15.4" font-family="sans-serif" font-size="14.00" fill="#000000"> &#160;Module</text>
<polygon fill="#80b1d3" stroke="transparent" points="580,-10 580,-30 600,-30 600,-10 580,-10"/>
<text text-anchor="start" x="603.7812" y="-15.4" font-family="sans-serif" font-size="14.00" fill="#000000"> &#160;Bootstrap</text>
<polygon fill="#fdb462" stroke="transparent" points="677,-10 677,-30 697,-30 697,-10 677,-10"/>
<text text-anchor="start" x="700.6732" y="-15.4" font-family="sans-serif" font-size="14.00" fill="#000000"> &#160;Providers</text>
<polygon fill="#fb8072" stroke="transparent" points="773,-10 773,-30 793,-30 793,-10 773,-10"/>
<text text-anchor="start" x="796.7258" y="-15.4" font-family="sans-serif" font-size="14.00" fill="#000000"> &#160;Exports</text>
<g id="clust1" class="cluster">
<title>cluster_AppModule</title>
<polygon fill="none" stroke="#000000" stroke-dasharray="1,5" points="8,-70 8,-274 846,-274 846,-70 8,-70"/>
</g>
<g id="clust3" class="cluster">
<title>cluster_AppModule_imports</title>
<polygon fill="none" stroke="#000000" points="16,-78 16,-130 838,-130 838,-78 16,-78"/>
</g>
<g id="clust5" class="cluster">
<title>cluster_AppModule_bootstrap</title>
<polygon fill="none" stroke="#000000" points="401,-214 401,-266 525,-266 525,-214 401,-214"/>
</g>
<g id="clust7" class="cluster">
<title>cluster_ToggleItModule</title>
<polygon fill="none" stroke="#000000" stroke-dasharray="1,5" points="854,-138 854,-206 1222,-206 1222,-138 854,-138"/>
</g>
<g id="clust9" class="cluster">
<title>cluster_ToggleItModule_imports</title>
<polygon fill="none" stroke="#000000" points="1086,-146 1086,-198 1214,-198 1214,-146 1086,-146"/>
</g>
<g id="clust10" class="cluster">
<title>cluster_ToggleItModule_exports</title>
<polygon fill="none" stroke="#000000" points="862,-146 862,-198 1078,-198 1078,-146 862,-146"/>
</g>
<!-- BrowserModule -->
<g id="node1" class="node">
<title>BrowserModule</title>
<polygon fill="#8dd3c7" stroke="#000000" points="704.4734,-122 701.4734,-126 680.4734,-126 677.4734,-122 597.5266,-122 597.5266,-86 704.4734,-86 704.4734,-122"/>
<text text-anchor="middle" x="651" y="-99.8" font-family="Times,serif" font-size="14.00" fill="#000000">BrowserModule</text>
</g>
<!-- AppModule -->
<g id="node7" class="node">
<title>AppModule</title>
<polygon fill="#8dd3c7" stroke="#000000" points="504.6571,-190 501.6571,-194 480.6571,-194 477.6571,-190 421.3429,-190 421.3429,-154 504.6571,-154 504.6571,-190"/>
<text text-anchor="middle" x="463" y="-167.8" font-family="Times,serif" font-size="14.00" fill="#000000">AppModule</text>
</g>
<!-- BrowserModule&#45;&gt;AppModule -->
<g id="edge1" class="edge">
<title>BrowserModule&#45;&gt;AppModule</title>
<path fill="none" stroke="#000000" d="M651,-122.2667C651,-140.5552 651,-166 651,-166 651,-166 514.7233,-166 514.7233,-166"/>
<polygon fill="#000000" stroke="#000000" points="514.7233,-162.5001 504.7233,-166 514.7233,-169.5001 514.7233,-162.5001"/>
</g>
<!-- FormsModule -->
<g id="node2" class="node">
<title>FormsModule</title>
<polygon fill="#8dd3c7" stroke="#000000" points="579.8288,-122 576.8288,-126 555.8288,-126 552.8288,-122 484.1712,-122 484.1712,-86 579.8288,-86 579.8288,-122"/>
<text text-anchor="middle" x="532" y="-99.8" font-family="Times,serif" font-size="14.00" fill="#000000">FormsModule</text>
</g>
<!-- FormsModule&#45;&gt;AppModule -->
<g id="edge2" class="edge">
<title>FormsModule&#45;&gt;AppModule</title>
<path fill="none" stroke="#000000" d="M494.5821,-122.2228C494.5821,-122.2228 494.5821,-143.7269 494.5821,-143.7269"/>
<polygon fill="#000000" stroke="#000000" points="491.0821,-143.7269 494.5821,-153.7269 498.0821,-143.727 491.0821,-143.7269"/>
</g>
<!-- ReactiveFormsModule -->
<g id="node3" class="node">
<title>ReactiveFormsModule</title>
<polygon fill="#8dd3c7" stroke="#000000" points="466.3047,-122 463.3047,-126 442.3047,-126 439.3047,-122 321.6953,-122 321.6953,-86 466.3047,-86 466.3047,-122"/>
<text text-anchor="middle" x="394" y="-99.8" font-family="Times,serif" font-size="14.00" fill="#000000">ReactiveFormsModule</text>
</g>
<!-- ReactiveFormsModule&#45;&gt;AppModule -->
<g id="edge3" class="edge">
<title>ReactiveFormsModule&#45;&gt;AppModule</title>
<path fill="none" stroke="#000000" d="M443.662,-122.2228C443.662,-122.2228 443.662,-143.7269 443.662,-143.7269"/>
<polygon fill="#000000" stroke="#000000" points="440.1621,-143.7269 443.662,-153.7269 447.1621,-143.727 440.1621,-143.7269"/>
</g>
<!-- HttpModule -->
<g id="node4" class="node">
<title>HttpModule</title>
<polygon fill="#8dd3c7" stroke="#000000" points="304.4387,-122 301.4387,-126 280.4387,-126 277.4387,-122 219.5613,-122 219.5613,-86 304.4387,-86 304.4387,-122"/>
<text text-anchor="middle" x="262" y="-99.8" font-family="Times,serif" font-size="14.00" fill="#000000">HttpModule</text>
</g>
<!-- HttpModule&#45;&gt;AppModule -->
<g id="edge4" class="edge">
<title>HttpModule&#45;&gt;AppModule</title>
<path fill="none" stroke="#000000" d="M262,-122.2667C262,-140.5552 262,-166 262,-166 262,-166 410.8638,-166 410.8638,-166"/>
<polygon fill="#000000" stroke="#000000" points="410.8638,-169.5001 420.8638,-166 410.8638,-162.5001 410.8638,-169.5001"/>
</g>
<!-- ToggleItModule -->
<g id="node5" class="node">
<title>ToggleItModule</title>
<polygon fill="#8dd3c7" stroke="#000000" points="829.7591,-122 826.7591,-126 805.7591,-126 802.7591,-122 722.2409,-122 722.2409,-86 829.7591,-86 829.7591,-122"/>
<text text-anchor="middle" x="776" y="-99.8" font-family="Times,serif" font-size="14.00" fill="#000000">ToggleItModule</text>
</g>
<!-- ToggleItModule&#45;&gt;AppModule -->
<g id="edge5" class="edge">
<title>ToggleItModule&#45;&gt;AppModule</title>
<path fill="none" stroke="#000000" d="M776,-122.2921C776,-144.2057 776,-178 776,-178 776,-178 514.8878,-178 514.8878,-178"/>
<polygon fill="#000000" stroke="#000000" points="514.8878,-174.5001 504.8878,-178 514.8878,-181.5001 514.8878,-174.5001"/>
</g>
<!-- ToggleItDirective  -->
<g id="node10" class="node">
<title>ToggleItDirective </title>
<polygon fill="#fb8072" stroke="#000000" points="1069.792,-190 950.208,-190 950.208,-154 1069.792,-154 1069.792,-190"/>
<text text-anchor="middle" x="1010" y="-167.8" font-family="Times,serif" font-size="14.00" fill="#000000">ToggleItDirective </text>
</g>
<!-- ToggleItModule&#45;&gt;ToggleItDirective  -->
<g id="edge9" class="edge">
<title>ToggleItModule&#45;&gt;ToggleItDirective </title>
<path fill="none" stroke="#000000" stroke-dasharray="5,2" d="M829.9781,-104C899.084,-104 1010,-104 1010,-104 1010,-104 1010,-143.7772 1010,-143.7772"/>
<polygon fill="#000000" stroke="#000000" points="1006.5001,-143.7772 1010,-153.7772 1013.5001,-143.7773 1006.5001,-143.7772"/>
</g>
<!-- Feature  -->
<g id="node11" class="node">
<title>Feature </title>
<polygon fill="#fb8072" stroke="#000000" points="931.9795,-190 870.0205,-190 870.0205,-154 931.9795,-154 931.9795,-190"/>
<text text-anchor="middle" x="901" y="-167.8" font-family="Times,serif" font-size="14.00" fill="#000000">Feature </text>
</g>
<!-- ToggleItModule&#45;&gt;Feature  -->
<g id="edge10" class="edge">
<title>ToggleItModule&#45;&gt;Feature </title>
<path fill="none" stroke="#000000" stroke-dasharray="5,2" d="M830.0998,-113C863.8825,-113 901,-113 901,-113 901,-113 901,-143.9775 901,-143.9775"/>
<polygon fill="#000000" stroke="#000000" points="897.5001,-143.9774 901,-153.9775 904.5001,-143.9775 897.5001,-143.9774"/>
</g>
<!-- RouterModule.forRoot(args) -->
<g id="node6" class="node">
<title>RouterModule.forRoot(args)</title>
<polygon fill="#8dd3c7" stroke="#000000" points="201.8419,-122 198.8419,-126 177.8419,-126 174.8419,-122 24.1581,-122 24.1581,-86 201.8419,-86 201.8419,-122"/>
<text text-anchor="middle" x="113" y="-99.8" font-family="Times,serif" font-size="14.00" fill="#000000">RouterModule.forRoot(args)</text>
</g>
<!-- RouterModule.forRoot(args)&#45;&gt;AppModule -->
<g id="edge6" class="edge">
<title>RouterModule.forRoot(args)&#45;&gt;AppModule</title>
<path fill="none" stroke="#000000" d="M113,-122.2921C113,-144.2057 113,-178 113,-178 113,-178 411.1295,-178 411.1295,-178"/>
<polygon fill="#000000" stroke="#000000" points="411.1295,-181.5001 421.1295,-178 411.1294,-174.5001 411.1295,-181.5001"/>
</g>
<!-- AppComponent  -->
<g id="node8" class="node">
<title>AppComponent </title>
<polygon fill="#80b1d3" stroke="#000000" points="517.439,-258 408.561,-258 408.561,-222 517.439,-222 517.439,-258"/>
<text text-anchor="middle" x="463" y="-235.8" font-family="Times,serif" font-size="14.00" fill="#000000">AppComponent </text>
</g>
<!-- AppModule&#45;&gt;AppComponent  -->
<g id="edge7" class="edge">
<title>AppModule&#45;&gt;AppComponent </title>
<path fill="none" stroke="#000000" stroke-dasharray="1,5" d="M463,-190.2228C463,-190.2228 463,-211.7269 463,-211.7269"/>
<polygon fill="#000000" stroke="#000000" points="459.5001,-211.7269 463,-221.7269 466.5001,-211.727 459.5001,-211.7269"/>
</g>
<!-- CommonModule -->
<g id="node9" class="node">
<title>CommonModule</title>
<polygon fill="#8dd3c7" stroke="#000000" points="1205.6681,-190 1202.6681,-194 1181.6681,-194 1178.6681,-190 1094.3319,-190 1094.3319,-154 1205.6681,-154 1205.6681,-190"/>
<text text-anchor="middle" x="1150" y="-167.8" font-family="Times,serif" font-size="14.00" fill="#000000">CommonModule</text>
</g>
<!-- CommonModule&#45;&gt;ToggleItModule -->
<g id="edge8" class="edge">
<title>CommonModule&#45;&gt;ToggleItModule</title>
<path fill="none" stroke="#000000" d="M1150,-153.7521C1150,-130.9821 1150,-95 1150,-95 1150,-95 839.9834,-95 839.9834,-95"/>
<polygon fill="#000000" stroke="#000000" points="839.9834,-91.5001 829.9834,-95 839.9834,-98.5001 839.9834,-91.5001"/>
</g>
</g>
</svg>
