<?xml version="1.0" encoding="UTF-8" standalone="no"?>
<!DOCTYPE svg PUBLIC "-//W3C//DTD SVG 1.1//EN"
 "http://www.w3.org/Graphics/SVG/1.1/DTD/svg11.dtd">
<!-- Generated by graphviz version 2.40.1 (20161225.0304)
 -->
<!-- Title: dependencies Pages: 1 -->
<svg width="1694pt" height="349pt"
 viewBox="0.00 0.00 1694.00 349.00" xmlns="http://www.w3.org/2000/svg" xmlns:xlink="http://www.w3.org/1999/xlink">
<g id="graph0" class="graph" transform="scale(1 1) rotate(0) translate(4 345)">
<title>dependencies</title>
<polygon fill="#ffffff" stroke="transparent" points="-4,4 -4,-345 1690,-345 1690,4 -4,4"/>
<text text-anchor="start" x="822.0091" y="-42.4" font-family="sans-serif" font-weight="bold" font-size="14.00" fill="#000000">Legend</text>
<polygon fill="#ffffb3" stroke="transparent" points="609,-10 609,-30 629,-30 629,-10 609,-10"/>
<text text-anchor="start" x="632.629" y="-15.4" font-family="sans-serif" font-size="14.00" fill="#000000"> &#160;Declarations</text>
<polygon fill="#8dd3c7" stroke="transparent" points="722,-10 722,-30 742,-30 742,-10 722,-10"/>
<text text-anchor="start" x="745.7251" y="-15.4" font-family="sans-serif" font-size="14.00" fill="#000000"> &#160;Module</text>
<polygon fill="#80b1d3" stroke="transparent" points="808,-10 808,-30 828,-30 828,-10 808,-10"/>
<text text-anchor="start" x="831.7812" y="-15.4" font-family="sans-serif" font-size="14.00" fill="#000000"> &#160;Bootstrap</text>
<polygon fill="#fdb462" stroke="transparent" points="905,-10 905,-30 925,-30 925,-10 905,-10"/>
<text text-anchor="start" x="928.6732" y="-15.4" font-family="sans-serif" font-size="14.00" fill="#000000"> &#160;Providers</text>
<polygon fill="#fb8072" stroke="transparent" points="1001,-10 1001,-30 1021,-30 1021,-10 1001,-10"/>
<text text-anchor="start" x="1024.7258" y="-15.4" font-family="sans-serif" font-size="14.00" fill="#000000"> &#160;Exports</text>
<g id="clust1" class="cluster">
<title>cluster_AppModule</title>
<polygon fill="none" stroke="#000000" stroke-dasharray="1,5" points="8,-70 8,-333 1678,-333 1678,-70 8,-70"/>
</g>
<g id="clust2" class="cluster">
<title>cluster_AppModule_declarations</title>
<polygon fill="none" stroke="#000000" points="1234,-143 1234,-195 1658,-195 1658,-143 1234,-143"/>
</g>
<g id="clust3" class="cluster">
<title>cluster_AppModule_AppComponent_providers</title>
<polygon fill="none" stroke="#000000" points="1508,-78 1508,-130 1670,-130 1670,-78 1508,-78"/>
</g>
<g id="clust6" class="cluster">
<title>cluster_AppModule_imports</title>
<polygon fill="none" stroke="#000000" points="404,-143 404,-195 1226,-195 1226,-143 404,-143"/>
</g>
<g id="clust8" class="cluster">
<title>cluster_AppModule_bootstrap</title>
<polygon fill="none" stroke="#000000" points="984,-273 984,-325 1108,-325 1108,-273 984,-273"/>
</g>
<g id="clust9" class="cluster">
<title>cluster_AppModule_providers</title>
<polygon fill="none" stroke="#000000" points="16,-143 16,-195 396,-195 396,-143 16,-143"/>
</g>
<!-- AppComponent -->
<g id="node1" class="node">
<title>AppComponent</title>
<polygon fill="#ffffb3" stroke="#000000" points="1649.9399,-187 1544.0601,-187 1544.0601,-151 1649.9399,-151 1649.9399,-187"/>
<text text-anchor="middle" x="1597" y="-164.8" font-family="Times,serif" font-size="14.00" fill="#000000">AppComponent</text>
</g>
<!-- AppModule -->
<g id="node4" class="node">
<title>AppModule</title>
<polygon fill="#8dd3c7" stroke="#000000" points="1087.6571,-252 1084.6571,-256 1063.6571,-256 1060.6571,-252 1004.3429,-252 1004.3429,-216 1087.6571,-216 1087.6571,-252"/>
<text text-anchor="middle" x="1046" y="-229.8" font-family="Times,serif" font-size="14.00" fill="#000000">AppModule</text>
</g>
<!-- AppComponent&#45;&gt;AppModule -->
<g id="edge1" class="edge">
<title>AppComponent&#45;&gt;AppModule</title>
<path fill="none" stroke="#000000" d="M1597,-187.2479C1597,-210.0179 1597,-246 1597,-246 1597,-246 1097.8668,-246 1097.8668,-246"/>
<polygon fill="#000000" stroke="#000000" points="1097.8668,-242.5001 1087.8668,-246 1097.8668,-249.5001 1097.8668,-242.5001"/>
</g>
<!-- DashboardComponent -->
<g id="node2" class="node">
<title>DashboardComponent</title>
<polygon fill="#ffffb3" stroke="#000000" points="1525.9734,-187 1384.0266,-187 1384.0266,-151 1525.9734,-151 1525.9734,-187"/>
<text text-anchor="middle" x="1455" y="-164.8" font-family="Times,serif" font-size="14.00" fill="#000000">DashboardComponent</text>
</g>
<!-- DashboardComponent&#45;&gt;AppModule -->
<g id="edge3" class="edge">
<title>DashboardComponent&#45;&gt;AppModule</title>
<path fill="none" stroke="#000000" d="M1455,-187.1061C1455,-206.3391 1455,-234 1455,-234 1455,-234 1097.8481,-234 1097.8481,-234"/>
<polygon fill="#000000" stroke="#000000" points="1097.8481,-230.5001 1087.8481,-234 1097.8481,-237.5001 1097.8481,-230.5001"/>
</g>
<!-- RewardComponent -->
<g id="node3" class="node">
<title>RewardComponent</title>
<polygon fill="#ffffb3" stroke="#000000" points="1366.3655,-187 1241.6345,-187 1241.6345,-151 1366.3655,-151 1366.3655,-187"/>
<text text-anchor="middle" x="1304" y="-164.8" font-family="Times,serif" font-size="14.00" fill="#000000">RewardComponent</text>
</g>
<!-- RewardComponent&#45;&gt;AppModule -->
<g id="edge4" class="edge">
<title>RewardComponent&#45;&gt;AppModule</title>
<path fill="none" stroke="#000000" d="M1304,-187.0225C1304,-204.3734 1304,-228 1304,-228 1304,-228 1097.7389,-228 1097.7389,-228"/>
<polygon fill="#000000" stroke="#000000" points="1097.7389,-224.5001 1087.7389,-228 1097.7389,-231.5001 1097.7389,-224.5001"/>
</g>
<!-- AppComponent  -->
<g id="node12" class="node">
<title>AppComponent </title>
<polygon fill="#80b1d3" stroke="#000000" points="1100.439,-317 991.561,-317 991.561,-281 1100.439,-281 1100.439,-317"/>
<text text-anchor="middle" x="1046" y="-294.8" font-family="Times,serif" font-size="14.00" fill="#000000">AppComponent </text>
</g>
<!-- AppModule&#45;&gt;AppComponent  -->
<g id="edge11" class="edge">
<title>AppModule&#45;&gt;AppComponent </title>
<path fill="none" stroke="#000000" stroke-dasharray="1,5" d="M1046,-252.1061C1046,-252.1061 1046,-270.991 1046,-270.991"/>
<polygon fill="#000000" stroke="#000000" points="1042.5001,-270.9909 1046,-280.991 1049.5001,-270.991 1042.5001,-270.9909"/>
</g>
<!-- ToggleItService -->
<g id="node5" class="node">
<title>ToggleItService</title>
<ellipse fill="#fdb462" stroke="#000000" cx="1589" cy="-104" rx="73.492" ry="18"/>
<text text-anchor="middle" x="1589" y="-99.8" font-family="Times,serif" font-size="14.00" fill="#000000">ToggleItService</text>
</g>
<!-- ToggleItService&#45;&gt;AppComponent -->
<g id="edge2" class="edge">
<title>ToggleItService&#45;&gt;AppComponent</title>
<path fill="none" stroke="#000000" d="M1597,-122.1061C1597,-122.1061 1597,-140.991 1597,-140.991"/>
<polygon fill="#000000" stroke="#000000" points="1593.5001,-140.9909 1597,-150.991 1600.5001,-140.991 1593.5001,-140.9909"/>
</g>
<!-- ToggleItService&#45;&gt;AppModule -->
<g id="edge12" class="edge">
<title>ToggleItService&#45;&gt;AppModule</title>
<path fill="none" stroke="#000000" d="M1535.1336,-116.5508C1535.1336,-150.2188 1535.1336,-240 1535.1336,-240 1535.1336,-240 1097.7033,-240 1097.7033,-240"/>
<polygon fill="#000000" stroke="#000000" points="1097.7033,-236.5001 1087.7033,-240 1097.7032,-243.5001 1097.7033,-236.5001"/>
</g>
<!-- BrowserModule -->
<g id="node6" class="node">
<title>BrowserModule</title>
<polygon fill="#8dd3c7" stroke="#000000" points="1218.4734,-187 1215.4734,-191 1194.4734,-191 1191.4734,-187 1111.5266,-187 1111.5266,-151 1218.4734,-151 1218.4734,-187"/>
<text text-anchor="middle" x="1165" y="-164.8" font-family="Times,serif" font-size="14.00" fill="#000000">BrowserModule</text>
</g>
<!-- BrowserModule&#45;&gt;AppModule -->
<g id="edge5" class="edge">
<title>BrowserModule&#45;&gt;AppModule</title>
<path fill="none" stroke="#000000" d="M1165,-187.2396C1165,-202.5706 1165,-222 1165,-222 1165,-222 1097.9549,-222 1097.9549,-222"/>
<polygon fill="#000000" stroke="#000000" points="1097.955,-218.5001 1087.9549,-222 1097.9549,-225.5001 1097.955,-218.5001"/>
</g>
<!-- FormsModule -->
<g id="node7" class="node">
<title>FormsModule</title>
<polygon fill="#8dd3c7" stroke="#000000" points="1093.8288,-187 1090.8288,-191 1069.8288,-191 1066.8288,-187 998.1712,-187 998.1712,-151 1093.8288,-151 1093.8288,-187"/>
<text text-anchor="middle" x="1046" y="-164.8" font-family="Times,serif" font-size="14.00" fill="#000000">FormsModule</text>
</g>
<!-- FormsModule&#45;&gt;AppModule -->
<g id="edge6" class="edge">
<title>FormsModule&#45;&gt;AppModule</title>
<path fill="none" stroke="#000000" d="M1046,-187.1061C1046,-187.1061 1046,-205.991 1046,-205.991"/>
<polygon fill="#000000" stroke="#000000" points="1042.5001,-205.9909 1046,-215.991 1049.5001,-205.991 1042.5001,-205.9909"/>
</g>
<!-- ReactiveFormsModule -->
<g id="node8" class="node">
<title>ReactiveFormsModule</title>
<polygon fill="#8dd3c7" stroke="#000000" points="980.3047,-187 977.3047,-191 956.3047,-191 953.3047,-187 835.6953,-187 835.6953,-151 980.3047,-151 980.3047,-187"/>
<text text-anchor="middle" x="908" y="-164.8" font-family="Times,serif" font-size="14.00" fill="#000000">ReactiveFormsModule</text>
</g>
<!-- ReactiveFormsModule&#45;&gt;AppModule -->
<g id="edge7" class="edge">
<title>ReactiveFormsModule&#45;&gt;AppModule</title>
<path fill="none" stroke="#000000" d="M908,-187.2396C908,-202.5706 908,-222 908,-222 908,-222 994.221,-222 994.221,-222"/>
<polygon fill="#000000" stroke="#000000" points="994.221,-225.5001 1004.221,-222 994.2209,-218.5001 994.221,-225.5001"/>
</g>
<!-- HttpModule -->
<g id="node9" class="node">
<title>HttpModule</title>
<polygon fill="#8dd3c7" stroke="#000000" points="818.4387,-187 815.4387,-191 794.4387,-191 791.4387,-187 733.5613,-187 733.5613,-151 818.4387,-151 818.4387,-187"/>
<text text-anchor="middle" x="776" y="-164.8" font-family="Times,serif" font-size="14.00" fill="#000000">HttpModule</text>
</g>
<!-- HttpModule&#45;&gt;AppModule -->
<g id="edge8" class="edge">
<title>HttpModule&#45;&gt;AppModule</title>
<path fill="none" stroke="#000000" d="M776,-187.0225C776,-204.3734 776,-228 776,-228 776,-228 994.1087,-228 994.1087,-228"/>
<polygon fill="#000000" stroke="#000000" points="994.1088,-231.5001 1004.1087,-228 994.1087,-224.5001 994.1088,-231.5001"/>
</g>
<!-- ToggleItModule -->
<g id="node10" class="node">
<title>ToggleItModule</title>
<polygon fill="#8dd3c7" stroke="#000000" points="715.7591,-187 712.7591,-191 691.7591,-191 688.7591,-187 608.2409,-187 608.2409,-151 715.7591,-151 715.7591,-187"/>
<text text-anchor="middle" x="662" y="-164.8" font-family="Times,serif" font-size="14.00" fill="#000000">ToggleItModule</text>
</g>
<!-- ToggleItModule&#45;&gt;AppModule -->
<g id="edge9" class="edge">
<title>ToggleItModule&#45;&gt;AppModule</title>
<path fill="none" stroke="#000000" d="M662,-187.1061C662,-206.3391 662,-234 662,-234 662,-234 994.1743,-234 994.1743,-234"/>
<polygon fill="#000000" stroke="#000000" points="994.1743,-237.5001 1004.1743,-234 994.1742,-230.5001 994.1743,-237.5001"/>
</g>
<!-- RouterModule.forRoot(args) -->
<g id="node11" class="node">
<title>RouterModule.forRoot(args)</title>
<polygon fill="#8dd3c7" stroke="#000000" points="589.8419,-187 586.8419,-191 565.8419,-191 562.8419,-187 412.1581,-187 412.1581,-151 589.8419,-151 589.8419,-187"/>
<text text-anchor="middle" x="501" y="-164.8" font-family="Times,serif" font-size="14.00" fill="#000000">RouterModule.forRoot(args)</text>
</g>
<!-- RouterModule.forRoot(args)&#45;&gt;AppModule -->
<g id="edge10" class="edge">
<title>RouterModule.forRoot(args)&#45;&gt;AppModule</title>
<path fill="none" stroke="#000000" d="M501,-187.2843C501,-208.3211 501,-240 501,-240 501,-240 994.1397,-240 994.1397,-240"/>
<polygon fill="#000000" stroke="#000000" points="994.1397,-243.5001 1004.1397,-240 994.1397,-236.5001 994.1397,-243.5001"/>
</g>
<!-- { provide: APP_BASE_HREF, useValue: &#160;} -->
<g id="node13" class="node">
<title>{ provide: APP_BASE_HREF, useValue: &#160;}</title>
<ellipse fill="#fdb462" stroke="#000000" cx="206" cy="-169" rx="182.1166" ry="18"/>
<text text-anchor="middle" x="206" y="-164.8" font-family="Times,serif" font-size="14.00" fill="#000000">{ provide: APP_BASE_HREF, useValue: &#160;}</text>
</g>
<!-- { provide: APP_BASE_HREF, useValue: &#160;}&#45;&gt;AppModule -->
<g id="edge13" class="edge">
<title>{ provide: APP_BASE_HREF, useValue: &#160;}&#45;&gt;AppModule</title>
<path fill="none" stroke="#000000" d="M206,-187.2479C206,-210.0179 206,-246 206,-246 206,-246 994.0569,-246 994.0569,-246"/>
<polygon fill="#000000" stroke="#000000" points="994.0569,-249.5001 1004.0569,-246 994.0568,-242.5001 994.0569,-249.5001"/>
</g>
</g>
</svg>
