<?xml version="1.0" encoding="UTF-8" standalone="no"?>
<!DOCTYPE svg PUBLIC "-//W3C//DTD SVG 1.1//EN"
 "http://www.w3.org/Graphics/SVG/1.1/DTD/svg11.dtd">
<!-- Generated by graphviz version 2.40.1 (20161225.0304)
 -->
<!-- Title: dependencies Pages: 1 -->
<svg width="1685pt" height="284pt"
 viewBox="0.00 0.00 1685.00 284.00" xmlns="http://www.w3.org/2000/svg" xmlns:xlink="http://www.w3.org/1999/xlink">
<g id="graph0" class="graph" transform="scale(1 1) rotate(0) translate(4 280)">
<title>dependencies</title>
<polygon fill="#ffffff" stroke="transparent" points="-4,4 -4,-280 1681,-280 1681,4 -4,4"/>
<text text-anchor="start" x="817.5091" y="-42.4" font-family="sans-serif" font-weight="bold" font-size="14.00" fill="#000000">Legend</text>
<polygon fill="#ffffb3" stroke="transparent" points="604.5,-10 604.5,-30 624.5,-30 624.5,-10 604.5,-10"/>
<text text-anchor="start" x="628.129" y="-15.4" font-family="sans-serif" font-size="14.00" fill="#000000"> &#160;Declarations</text>
<polygon fill="#8dd3c7" stroke="transparent" points="717.5,-10 717.5,-30 737.5,-30 737.5,-10 717.5,-10"/>
<text text-anchor="start" x="741.2251" y="-15.4" font-family="sans-serif" font-size="14.00" fill="#000000"> &#160;Module</text>
<polygon fill="#80b1d3" stroke="transparent" points="803.5,-10 803.5,-30 823.5,-30 823.5,-10 803.5,-10"/>
<text text-anchor="start" x="827.2812" y="-15.4" font-family="sans-serif" font-size="14.00" fill="#000000"> &#160;Bootstrap</text>
<polygon fill="#fdb462" stroke="transparent" points="900.5,-10 900.5,-30 920.5,-30 920.5,-10 900.5,-10"/>
<text text-anchor="start" x="924.1732" y="-15.4" font-family="sans-serif" font-size="14.00" fill="#000000"> &#160;Providers</text>
<polygon fill="#fb8072" stroke="transparent" points="996.5,-10 996.5,-30 1016.5,-30 1016.5,-10 996.5,-10"/>
<text text-anchor="start" x="1020.2258" y="-15.4" font-family="sans-serif" font-size="14.00" fill="#000000"> &#160;Exports</text>
<g id="clust1" class="cluster">
<title>cluster_AppModule</title>
<polygon fill="none" stroke="#000000" stroke-dasharray="1,5" points="8,-70 8,-268 1669,-268 1669,-70 8,-70"/>
</g>
<g id="clust2" class="cluster">
<title>cluster_AppModule_declarations</title>
<polygon fill="none" stroke="#000000" points="1237,-78 1237,-130 1661,-130 1661,-78 1237,-78"/>
</g>
<g id="clust6" class="cluster">
<title>cluster_AppModule_imports</title>
<polygon fill="none" stroke="#000000" points="569,-78 569,-130 1229,-130 1229,-78 569,-78"/>
</g>
<g id="clust8" class="cluster">
<title>cluster_AppModule_bootstrap</title>
<polygon fill="none" stroke="#000000" points="933,-208 933,-260 1057,-260 1057,-208 933,-208"/>
</g>
<g id="clust9" class="cluster">
<title>cluster_AppModule_providers</title>
<polygon fill="none" stroke="#000000" points="16,-78 16,-130 561,-130 561,-78 16,-78"/>
</g>
<!-- AppComponent -->
<g id="node1" class="node">
<title>AppComponent</title>
<polygon fill="#ffffb3" stroke="#000000" points="1652.9399,-122 1547.0601,-122 1547.0601,-86 1652.9399,-86 1652.9399,-122"/>
<text text-anchor="middle" x="1600" y="-99.8" font-family="Times,serif" font-size="14.00" fill="#000000">AppComponent</text>
</g>
<!-- AppModule -->
<g id="node4" class="node">
<title>AppModule</title>
<polygon fill="#8dd3c7" stroke="#000000" points="1036.6571,-187 1033.6571,-191 1012.6571,-191 1009.6571,-187 953.3429,-187 953.3429,-151 1036.6571,-151 1036.6571,-187"/>
<text text-anchor="middle" x="995" y="-164.8" font-family="Times,serif" font-size="14.00" fill="#000000">AppModule</text>
</g>
<!-- AppComponent&#45;&gt;AppModule -->
<g id="edge1" class="edge">
<title>AppComponent&#45;&gt;AppModule</title>
<path fill="none" stroke="#000000" d="M1600,-122.0109C1600,-144.4852 1600,-180 1600,-180 1600,-180 1047.0621,-180 1047.0621,-180"/>
<polygon fill="#000000" stroke="#000000" points="1047.0621,-176.5001 1037.0621,-180 1047.0621,-183.5001 1047.0621,-176.5001"/>
</g>
<!-- DashboardComponent -->
<g id="node2" class="node">
<title>DashboardComponent</title>
<polygon fill="#ffffb3" stroke="#000000" points="1528.9734,-122 1387.0266,-122 1387.0266,-86 1528.9734,-86 1528.9734,-122"/>
<text text-anchor="middle" x="1458" y="-99.8" font-family="Times,serif" font-size="14.00" fill="#000000">DashboardComponent</text>
</g>
<!-- DashboardComponent&#45;&gt;AppModule -->
<g id="edge2" class="edge">
<title>DashboardComponent&#45;&gt;AppModule</title>
<path fill="none" stroke="#000000" d="M1458,-122.1289C1458,-142.5724 1458,-173 1458,-173 1458,-173 1046.9048,-173 1046.9048,-173"/>
<polygon fill="#000000" stroke="#000000" points="1046.9048,-169.5001 1036.9048,-173 1046.9047,-176.5001 1046.9048,-169.5001"/>
</g>
<!-- RewardComponent -->
<g id="node3" class="node">
<title>RewardComponent</title>
<polygon fill="#ffffb3" stroke="#000000" points="1369.3655,-122 1244.6345,-122 1244.6345,-86 1369.3655,-86 1369.3655,-122"/>
<text text-anchor="middle" x="1307" y="-99.8" font-family="Times,serif" font-size="14.00" fill="#000000">RewardComponent</text>
</g>
<!-- RewardComponent&#45;&gt;AppModule -->
<g id="edge3" class="edge">
<title>RewardComponent&#45;&gt;AppModule</title>
<path fill="none" stroke="#000000" d="M1307,-122.2667C1307,-140.5552 1307,-166 1307,-166 1307,-166 1046.754,-166 1046.754,-166"/>
<polygon fill="#000000" stroke="#000000" points="1046.754,-162.5001 1036.754,-166 1046.7539,-169.5001 1046.754,-162.5001"/>
</g>
<!-- AppComponent  -->
<g id="node10" class="node">
<title>AppComponent </title>
<polygon fill="#80b1d3" stroke="#000000" points="1049.439,-252 940.561,-252 940.561,-216 1049.439,-216 1049.439,-252"/>
<text text-anchor="middle" x="995" y="-229.8" font-family="Times,serif" font-size="14.00" fill="#000000">AppComponent </text>
</g>
<!-- AppModule&#45;&gt;AppComponent  -->
<g id="edge9" class="edge">
<title>AppModule&#45;&gt;AppComponent </title>
<path fill="none" stroke="#000000" stroke-dasharray="1,5" d="M995,-187.1061C995,-187.1061 995,-205.991 995,-205.991"/>
<polygon fill="#000000" stroke="#000000" points="991.5001,-205.9909 995,-215.991 998.5001,-205.991 991.5001,-205.9909"/>
</g>
<!-- BrowserModule -->
<g id="node5" class="node">
<title>BrowserModule</title>
<polygon fill="#8dd3c7" stroke="#000000" points="1221.4734,-122 1218.4734,-126 1197.4734,-126 1194.4734,-122 1114.5266,-122 1114.5266,-86 1221.4734,-86 1221.4734,-122"/>
<text text-anchor="middle" x="1168" y="-99.8" font-family="Times,serif" font-size="14.00" fill="#000000">BrowserModule</text>
</g>
<!-- BrowserModule&#45;&gt;AppModule -->
<g id="edge4" class="edge">
<title>BrowserModule&#45;&gt;AppModule</title>
<path fill="none" stroke="#000000" d="M1168,-122.0091C1168,-138.0494 1168,-159 1168,-159 1168,-159 1046.8785,-159 1046.8785,-159"/>
<polygon fill="#000000" stroke="#000000" points="1046.8785,-155.5001 1036.8785,-159 1046.8784,-162.5001 1046.8785,-155.5001"/>
</g>
<!-- FormsModule -->
<g id="node6" class="node">
<title>FormsModule</title>
<polygon fill="#8dd3c7" stroke="#000000" points="1096.8288,-122 1093.8288,-126 1072.8288,-126 1069.8288,-122 1001.1712,-122 1001.1712,-86 1096.8288,-86 1096.8288,-122"/>
<text text-anchor="middle" x="1049" y="-99.8" font-family="Times,serif" font-size="14.00" fill="#000000">FormsModule</text>
</g>
<!-- FormsModule&#45;&gt;AppModule -->
<g id="edge5" class="edge">
<title>FormsModule&#45;&gt;AppModule</title>
<path fill="none" stroke="#000000" d="M1019.0821,-122.1061C1019.0821,-122.1061 1019.0821,-140.991 1019.0821,-140.991"/>
<polygon fill="#000000" stroke="#000000" points="1015.5821,-140.9909 1019.0821,-150.991 1022.5821,-140.991 1015.5821,-140.9909"/>
</g>
<!-- HttpModule -->
<g id="node7" class="node">
<title>HttpModule</title>
<polygon fill="#8dd3c7" stroke="#000000" points="983.4387,-122 980.4387,-126 959.4387,-126 956.4387,-122 898.5613,-122 898.5613,-86 983.4387,-86 983.4387,-122"/>
<text text-anchor="middle" x="941" y="-99.8" font-family="Times,serif" font-size="14.00" fill="#000000">HttpModule</text>
</g>
<!-- HttpModule&#45;&gt;AppModule -->
<g id="edge6" class="edge">
<title>HttpModule&#45;&gt;AppModule</title>
<path fill="none" stroke="#000000" d="M968.1953,-122.1061C968.1953,-122.1061 968.1953,-140.991 968.1953,-140.991"/>
<polygon fill="#000000" stroke="#000000" points="964.6954,-140.9909 968.1953,-150.991 971.6954,-140.991 964.6954,-140.9909"/>
</g>
<!-- ToggleItModule -->
<g id="node8" class="node">
<title>ToggleItModule</title>
<polygon fill="#8dd3c7" stroke="#000000" points="880.7591,-122 877.7591,-126 856.7591,-126 853.7591,-122 773.2409,-122 773.2409,-86 880.7591,-86 880.7591,-122"/>
<text text-anchor="middle" x="827" y="-99.8" font-family="Times,serif" font-size="14.00" fill="#000000">ToggleItModule</text>
</g>
<!-- ToggleItModule&#45;&gt;AppModule -->
<g id="edge7" class="edge">
<title>ToggleItModule&#45;&gt;AppModule</title>
<path fill="none" stroke="#000000" d="M827,-122.0091C827,-138.0494 827,-159 827,-159 827,-159 943.0399,-159 943.0399,-159"/>
<polygon fill="#000000" stroke="#000000" points="943.0399,-162.5001 953.0399,-159 943.0398,-155.5001 943.0399,-162.5001"/>
</g>
<!-- RouterModule.forRoot(args) -->
<g id="node9" class="node">
<title>RouterModule.forRoot(args)</title>
<polygon fill="#8dd3c7" stroke="#000000" points="754.8419,-122 751.8419,-126 730.8419,-126 727.8419,-122 577.1581,-122 577.1581,-86 754.8419,-86 754.8419,-122"/>
<text text-anchor="middle" x="666" y="-99.8" font-family="Times,serif" font-size="14.00" fill="#000000">RouterModule.forRoot(args)</text>
</g>
<!-- RouterModule.forRoot(args)&#45;&gt;AppModule -->
<g id="edge8" class="edge">
<title>RouterModule.forRoot(args)&#45;&gt;AppModule</title>
<path fill="none" stroke="#000000" d="M666,-122.2667C666,-140.5552 666,-166 666,-166 666,-166 943.3319,-166 943.3319,-166"/>
<polygon fill="#000000" stroke="#000000" points="943.332,-169.5001 953.3319,-166 943.3319,-162.5001 943.332,-169.5001"/>
</g>
<!-- ToggleItService -->
<g id="node11" class="node">
<title>ToggleItService</title>
<ellipse fill="#fdb462" stroke="#000000" cx="480" cy="-104" rx="73.492" ry="18"/>
<text text-anchor="middle" x="480" y="-99.8" font-family="Times,serif" font-size="14.00" fill="#000000">ToggleItService</text>
</g>
<!-- ToggleItService&#45;&gt;AppModule -->
<g id="edge10" class="edge">
<title>ToggleItService&#45;&gt;AppModule</title>
<path fill="none" stroke="#000000" d="M480,-122.1289C480,-142.5724 480,-173 480,-173 480,-173 943.2916,-173 943.2916,-173"/>
<polygon fill="#000000" stroke="#000000" points="943.2917,-176.5001 953.2916,-173 943.2916,-169.5001 943.2917,-176.5001"/>
</g>
<!-- { provide: APP_BASE_HREF, useValue: &#160;} -->
<g id="node12" class="node">
<title>{ provide: APP_BASE_HREF, useValue: &#160;}</title>
<ellipse fill="#fdb462" stroke="#000000" cx="206" cy="-104" rx="182.1166" ry="18"/>
<text text-anchor="middle" x="206" y="-99.8" font-family="Times,serif" font-size="14.00" fill="#000000">{ provide: APP_BASE_HREF, useValue: &#160;}</text>
</g>
<!-- { provide: APP_BASE_HREF, useValue: &#160;}&#45;&gt;AppModule -->
<g id="edge11" class="edge">
<title>{ provide: APP_BASE_HREF, useValue: &#160;}&#45;&gt;AppModule</title>
<path fill="none" stroke="#000000" d="M206,-122.0109C206,-144.4852 206,-180 206,-180 206,-180 943.137,-180 943.137,-180"/>
<polygon fill="#000000" stroke="#000000" points="943.137,-183.5001 953.137,-180 943.137,-176.5001 943.137,-183.5001"/>
</g>
</g>
</svg>
