<?xml version="1.0" encoding="UTF-8" standalone="no"?>
<!DOCTYPE svg PUBLIC "-//W3C//DTD SVG 1.1//EN"
 "http://www.w3.org/Graphics/SVG/1.1/DTD/svg11.dtd">
<!-- Generated by graphviz version 2.40.1 (20161225.0304)
 -->
<!-- Title: dependencies Pages: 1 -->
<svg width="504pt" height="284pt"
 viewBox="0.00 0.00 504.00 284.00" xmlns="http://www.w3.org/2000/svg" xmlns:xlink="http://www.w3.org/1999/xlink">
<g id="graph0" class="graph" transform="scale(1 1) rotate(0) translate(4 280)">
<title>dependencies</title>
<polygon fill="#ffffff" stroke="transparent" points="-4,4 -4,-280 500,-280 500,4 -4,4"/>
<text text-anchor="start" x="227.0091" y="-42.4" font-family="sans-serif" font-weight="bold" font-size="14.00" fill="#000000">Legend</text>
<polygon fill="#ffffb3" stroke="transparent" points="14,-10 14,-30 34,-30 34,-10 14,-10"/>
<text text-anchor="start" x="37.629" y="-15.4" font-family="sans-serif" font-size="14.00" fill="#000000"> &#160;Declarations</text>
<polygon fill="#8dd3c7" stroke="transparent" points="127,-10 127,-30 147,-30 147,-10 127,-10"/>
<text text-anchor="start" x="150.7251" y="-15.4" font-family="sans-serif" font-size="14.00" fill="#000000"> &#160;Module</text>
<polygon fill="#80b1d3" stroke="transparent" points="213,-10 213,-30 233,-30 233,-10 213,-10"/>
<text text-anchor="start" x="236.7812" y="-15.4" font-family="sans-serif" font-size="14.00" fill="#000000"> &#160;Bootstrap</text>
<polygon fill="#fdb462" stroke="transparent" points="310,-10 310,-30 330,-30 330,-10 310,-10"/>
<text text-anchor="start" x="333.6732" y="-15.4" font-family="sans-serif" font-size="14.00" fill="#000000"> &#160;Providers</text>
<polygon fill="#fb8072" stroke="transparent" points="406,-10 406,-30 426,-30 426,-10 406,-10"/>
<text text-anchor="start" x="429.7258" y="-15.4" font-family="sans-serif" font-size="14.00" fill="#000000"> &#160;Exports</text>
<g id="clust1" class="cluster">
<title>cluster_ToggleItModule</title>
<polygon fill="none" stroke="#000000" stroke-dasharray="1,5" points="32,-70 32,-268 464,-268 464,-70 32,-70"/>
</g>
<g id="clust2" class="cluster">
<title>cluster_ToggleItModule_declarations</title>
<polygon fill="none" stroke="#000000" points="176,-78 176,-130 456,-130 456,-78 176,-78"/>
</g>
<g id="clust5" class="cluster">
<title>cluster_ToggleItModule_imports</title>
<polygon fill="none" stroke="#000000" points="40,-78 40,-130 168,-130 168,-78 40,-78"/>
</g>
<g id="clust6" class="cluster">
<title>cluster_ToggleItModule_exports</title>
<polygon fill="none" stroke="#000000" points="105,-208 105,-260 392,-260 392,-208 105,-208"/>
</g>
<!-- ToggleItComponent -->
<g id="node1" class="node">
<title>ToggleItComponent</title>
<polygon fill="#ffffb3" stroke="#000000" points="447.5422,-122 318.4578,-122 318.4578,-86 447.5422,-86 447.5422,-122"/>
<text text-anchor="middle" x="383" y="-99.8" font-family="Times,serif" font-size="14.00" fill="#000000">ToggleItComponent</text>
</g>
<!-- ToggleItModule -->
<g id="node3" class="node">
<title>ToggleItModule</title>
<polygon fill="#8dd3c7" stroke="#000000" points="295.7591,-187 292.7591,-191 271.7591,-191 268.7591,-187 188.2409,-187 188.2409,-151 295.7591,-151 295.7591,-187"/>
<text text-anchor="middle" x="242" y="-164.8" font-family="Times,serif" font-size="14.00" fill="#000000">ToggleItModule</text>
</g>
<!-- ToggleItComponent&#45;&gt;ToggleItModule -->
<g id="edge1" class="edge">
<title>ToggleItComponent&#45;&gt;ToggleItModule</title>
<path fill="none" stroke="#000000" d="M350.875,-122.1061C350.875,-141.3391 350.875,-169 350.875,-169 350.875,-169 305.7996,-169 305.7996,-169"/>
<polygon fill="#000000" stroke="#000000" points="305.7996,-165.5001 295.7996,-169 305.7995,-172.5001 305.7996,-165.5001"/>
</g>
<!-- ToggleItDirective -->
<g id="node2" class="node">
<title>ToggleItDirective</title>
<polygon fill="#ffffb3" stroke="#000000" points="300.2922,-122 183.7078,-122 183.7078,-86 300.2922,-86 300.2922,-122"/>
<text text-anchor="middle" x="242" y="-99.8" font-family="Times,serif" font-size="14.00" fill="#000000">ToggleItDirective</text>
</g>
<!-- ToggleItDirective&#45;&gt;ToggleItModule -->
<g id="edge2" class="edge">
<title>ToggleItDirective&#45;&gt;ToggleItModule</title>
<path fill="none" stroke="#000000" d="M242,-122.1061C242,-122.1061 242,-140.991 242,-140.991"/>
<polygon fill="#000000" stroke="#000000" points="238.5001,-140.9909 242,-150.991 245.5001,-140.991 238.5001,-140.9909"/>
</g>
<!-- ToggleItComponent  -->
<g id="node5" class="node">
<title>ToggleItComponent </title>
<polygon fill="#fb8072" stroke="#000000" points="383.5414,-252 250.4586,-252 250.4586,-216 383.5414,-216 383.5414,-252"/>
<text text-anchor="middle" x="317" y="-229.8" font-family="Times,serif" font-size="14.00" fill="#000000">ToggleItComponent </text>
</g>
<!-- ToggleItModule&#45;&gt;ToggleItComponent  -->
<g id="edge4" class="edge">
<title>ToggleItModule&#45;&gt;ToggleItComponent </title>
<path fill="none" stroke="#000000" stroke-dasharray="5,2" d="M273.1794,-187.1061C273.1794,-187.1061 273.1794,-205.991 273.1794,-205.991"/>
<polygon fill="#000000" stroke="#000000" points="269.6794,-205.9909 273.1794,-215.991 276.6794,-205.991 269.6794,-205.9909"/>
</g>
<!-- ToggleItDirective  -->
<g id="node6" class="node">
<title>ToggleItDirective </title>
<polygon fill="#fb8072" stroke="#000000" points="232.792,-252 113.208,-252 113.208,-216 232.792,-216 232.792,-252"/>
<text text-anchor="middle" x="173" y="-229.8" font-family="Times,serif" font-size="14.00" fill="#000000">ToggleItDirective </text>
</g>
<!-- ToggleItModule&#45;&gt;ToggleItDirective  -->
<g id="edge5" class="edge">
<title>ToggleItModule&#45;&gt;ToggleItDirective </title>
<path fill="none" stroke="#000000" stroke-dasharray="5,2" d="M210.5083,-187.1061C210.5083,-187.1061 210.5083,-205.991 210.5083,-205.991"/>
<polygon fill="#000000" stroke="#000000" points="207.0083,-205.9909 210.5083,-215.991 214.0083,-205.991 207.0083,-205.9909"/>
</g>
<!-- CommonModule -->
<g id="node4" class="node">
<title>CommonModule</title>
<polygon fill="#8dd3c7" stroke="#000000" points="159.6681,-122 156.6681,-126 135.6681,-126 132.6681,-122 48.3319,-122 48.3319,-86 159.6681,-86 159.6681,-122"/>
<text text-anchor="middle" x="104" y="-99.8" font-family="Times,serif" font-size="14.00" fill="#000000">CommonModule</text>
</g>
<!-- CommonModule&#45;&gt;ToggleItModule -->
<g id="edge3" class="edge">
<title>CommonModule&#45;&gt;ToggleItModule</title>
<path fill="none" stroke="#000000" d="M136.469,-122.1061C136.469,-141.3391 136.469,-169 136.469,-169 136.469,-169 177.9979,-169 177.9979,-169"/>
<polygon fill="#000000" stroke="#000000" points="177.9979,-172.5001 187.9979,-169 177.9978,-165.5001 177.9979,-172.5001"/>
</g>
</g>
</svg>
