<?xml version="1.0" encoding="UTF-8" standalone="no"?>
<!DOCTYPE svg PUBLIC "-//W3C//DTD SVG 1.1//EN"
 "http://www.w3.org/Graphics/SVG/1.1/DTD/svg11.dtd">
<!-- Generated by graphviz version 2.40.1 (20161225.0304)
 -->
<!-- Title: dependencies Pages: 1 -->
<svg width="504pt" height="284pt"
 viewBox="0.00 0.00 504.00 284.00" xmlns="http://www.w3.org/2000/svg" xmlns:xlink="http://www.w3.org/1999/xlink">
<g id="graph0" class="graph" transform="scale(1 1) rotate(0) translate(4 280)">
<title>dependencies</title>
<polygon fill="#ffffff" stroke="transparent" points="-4,4 -4,-280 500,-280 500,4 -4,4"/>
<text text-anchor="start" x="227.0091" y="-42.4" font-family="sans-serif" font-weight="bold" font-size="14.00" fill="#000000">Legend</text>
<polygon fill="#ffffb3" stroke="transparent" points="14,-10 14,-30 34,-30 34,-10 14,-10"/>
<text text-anchor="start" x="37.629" y="-15.4" font-family="sans-serif" font-size="14.00" fill="#000000"> &#160;Declarations</text>
<polygon fill="#8dd3c7" stroke="transparent" points="127,-10 127,-30 147,-30 147,-10 127,-10"/>
<text text-anchor="start" x="150.7251" y="-15.4" font-family="sans-serif" font-size="14.00" fill="#000000"> &#160;Module</text>
<polygon fill="#80b1d3" stroke="transparent" points="213,-10 213,-30 233,-30 233,-10 213,-10"/>
<text text-anchor="start" x="236.7812" y="-15.4" font-family="sans-serif" font-size="14.00" fill="#000000"> &#160;Bootstrap</text>
<polygon fill="#fdb462" stroke="transparent" points="310,-10 310,-30 330,-30 330,-10 310,-10"/>
<text text-anchor="start" x="333.6732" y="-15.4" font-family="sans-serif" font-size="14.00" fill="#000000"> &#160;Providers</text>
<polygon fill="#fb8072" stroke="transparent" points="406,-10 406,-30 426,-30 426,-10 406,-10"/>
<text text-anchor="start" x="429.7258" y="-15.4" font-family="sans-serif" font-size="14.00" fill="#000000"> &#160;Exports</text>
<g id="clust1" class="cluster">
<title>cluster_ToggleItModule</title>
<polygon fill="none" stroke="#000000" stroke-dasharray="1,5" points="68,-70 68,-268 428,-268 428,-70 68,-70"/>
</g>
<g id="clust2" class="cluster">
<title>cluster_ToggleItModule_declarations</title>
<polygon fill="none" stroke="#000000" points="212,-78 212,-130 420,-130 420,-78 212,-78"/>
</g>
<g id="clust5" class="cluster">
<title>cluster_ToggleItModule_imports</title>
<polygon fill="none" stroke="#000000" points="76,-78 76,-130 204,-130 204,-78 76,-78"/>
</g>
<g id="clust6" class="cluster">
<title>cluster_ToggleItModule_exports</title>
<polygon fill="none" stroke="#000000" points="152,-208 152,-260 368,-260 368,-208 152,-208"/>
</g>
<!-- ToggleItDirective -->
<g id="node1" class="node">
<title>ToggleItDirective</title>
<polygon fill="#ffffb3" stroke="#000000" points="412.2922,-122 295.7078,-122 295.7078,-86 412.2922,-86 412.2922,-122"/>
<text text-anchor="middle" x="354" y="-99.8" font-family="Times,serif" font-size="14.00" fill="#000000">ToggleItDirective</text>
</g>
<!-- ToggleItModule -->
<g id="node3" class="node">
<title>ToggleItModule</title>
<polygon fill="#8dd3c7" stroke="#000000" points="302.7591,-187 299.7591,-191 278.7591,-191 275.7591,-187 195.2409,-187 195.2409,-151 302.7591,-151 302.7591,-187"/>
<text text-anchor="middle" x="249" y="-164.8" font-family="Times,serif" font-size="14.00" fill="#000000">ToggleItModule</text>
</g>
<!-- ToggleItDirective&#45;&gt;ToggleItModule -->
<g id="edge1" class="edge">
<title>ToggleItDirective&#45;&gt;ToggleItModule</title>
<path fill="none" stroke="#000000" d="M299.3668,-122.1061C299.3668,-122.1061 299.3668,-140.991 299.3668,-140.991"/>
<polygon fill="#000000" stroke="#000000" points="295.8668,-140.9909 299.3668,-150.991 302.8668,-140.991 295.8668,-140.9909"/>
</g>
<!-- Feature -->
<g id="node2" class="node">
<title>Feature</title>
<polygon fill="#ffffb3" stroke="#000000" points="277.9776,-122 220.0224,-122 220.0224,-86 277.9776,-86 277.9776,-122"/>
<text text-anchor="middle" x="249" y="-99.8" font-family="Times,serif" font-size="14.00" fill="#000000">Feature</text>
</g>
<!-- Feature&#45;&gt;ToggleItModule -->
<g id="edge2" class="edge">
<title>Feature&#45;&gt;ToggleItModule</title>
<path fill="none" stroke="#000000" d="M249,-122.1061C249,-122.1061 249,-140.991 249,-140.991"/>
<polygon fill="#000000" stroke="#000000" points="245.5001,-140.9909 249,-150.991 252.5001,-140.991 245.5001,-140.9909"/>
</g>
<!-- ToggleItDirective  -->
<g id="node5" class="node">
<title>ToggleItDirective </title>
<polygon fill="#fb8072" stroke="#000000" points="359.792,-252 240.208,-252 240.208,-216 359.792,-216 359.792,-252"/>
<text text-anchor="middle" x="300" y="-229.8" font-family="Times,serif" font-size="14.00" fill="#000000">ToggleItDirective </text>
</g>
<!-- ToggleItModule&#45;&gt;ToggleItDirective  -->
<g id="edge4" class="edge">
<title>ToggleItModule&#45;&gt;ToggleItDirective </title>
<path fill="none" stroke="#000000" stroke-dasharray="5,2" d="M271.4918,-187.1061C271.4918,-187.1061 271.4918,-205.991 271.4918,-205.991"/>
<polygon fill="#000000" stroke="#000000" points="267.9918,-205.9909 271.4918,-215.991 274.9918,-205.991 267.9918,-205.9909"/>
</g>
<!-- Feature  -->
<g id="node6" class="node">
<title>Feature </title>
<polygon fill="#fb8072" stroke="#000000" points="221.9795,-252 160.0205,-252 160.0205,-216 221.9795,-216 221.9795,-252"/>
<text text-anchor="middle" x="191" y="-229.8" font-family="Times,serif" font-size="14.00" fill="#000000">Feature </text>
</g>
<!-- ToggleItModule&#45;&gt;Feature  -->
<g id="edge5" class="edge">
<title>ToggleItModule&#45;&gt;Feature </title>
<path fill="none" stroke="#000000" stroke-dasharray="5,2" d="M208.4297,-187.1061C208.4297,-187.1061 208.4297,-205.991 208.4297,-205.991"/>
<polygon fill="#000000" stroke="#000000" points="204.9298,-205.9909 208.4297,-215.991 211.9298,-205.991 204.9298,-205.9909"/>
</g>
<!-- CommonModule -->
<g id="node4" class="node">
<title>CommonModule</title>
<polygon fill="#8dd3c7" stroke="#000000" points="195.6681,-122 192.6681,-126 171.6681,-126 168.6681,-122 84.3319,-122 84.3319,-86 195.6681,-86 195.6681,-122"/>
<text text-anchor="middle" x="140" y="-99.8" font-family="Times,serif" font-size="14.00" fill="#000000">CommonModule</text>
</g>
<!-- CommonModule&#45;&gt;ToggleItModule -->
<g id="edge3" class="edge">
<title>CommonModule&#45;&gt;ToggleItModule</title>
<path fill="none" stroke="#000000" d="M195.7793,-104C202.9881,-104 207.9225,-104 207.9225,-104 207.9225,-104 207.9225,-140.8939 207.9225,-140.8939"/>
<polygon fill="#000000" stroke="#000000" points="204.4226,-140.8938 207.9225,-150.8939 211.4226,-140.8939 204.4226,-140.8938"/>
</g>
</g>
</svg>
